<svg width="24" height="24" viewBox="0 0 24 24" fill="none" xmlns="http://www.w3.org/2000/svg">
<g clip-path="url(#clip0_140_1173)">
<path d="M23.6397 14.9029C22.0371 21.3315 15.5259 25.2438 9.0965 23.6407C2.6698 22.038 -1.24254 15.5265 0.360847 9.09837C1.96283 2.66903 8.47399 -1.24361 14.9014 0.359081C21.3303 1.96177 25.2424 8.47404 23.6396 14.903L23.6397 14.9029H23.6397Z" fill="#343D4B"/>
<path d="M17.1421 6.99902C16.0266 6.99902 14.8051 7.60697 13.5167 8.80613C12.9088 9.36945 12.3733 9.98298 11.9829 10.4682C11.9829 10.4682 12.6076 11.1877 13.2936 11.963C13.6673 11.4945 14.1972 10.8586 14.8163 10.2842C15.9597 9.21328 16.707 8.99576 17.1365 8.99576C18.7428 8.99576 20.0479 10.3455 20.0479 12.0132C20.0479 13.6641 18.7428 15.0139 17.1365 15.0306C17.0584 15.0306 16.9692 15.0194 16.8576 14.9971C17.3261 15.2147 17.8337 15.3708 18.3078 15.3708C21.2527 15.3708 21.8327 13.335 21.8662 13.19C21.9499 12.8163 22.0001 12.4259 22.0001 12.0243C21.9945 9.25233 19.8193 6.99902 17.1421 6.99902Z" fill="url(#paint0_linear_140_1173)"/>
<path d="M6.85139 17.0273C7.96689 17.0273 9.18836 16.4194 10.4768 15.2202C11.0847 14.6569 11.6201 14.0434 12.0106 13.5581C12.0106 13.5581 11.3859 12.8386 10.6999 12.0634C10.3262 12.5319 9.7963 13.1677 9.1772 13.7422C8.03382 14.8019 7.28086 15.0306 6.85697 15.0306C5.25066 15.0306 3.94553 13.6808 3.94553 12.0132C3.94553 10.3622 5.25066 9.01249 6.85697 8.99576C6.93506 8.99576 7.02429 9.00691 7.13584 9.02922C6.66734 8.8117 6.15979 8.65553 5.6857 8.65553C2.74079 8.64995 2.16073 10.6857 2.12727 10.8363C2.04361 11.21 1.99341 11.6004 1.99341 12.002C1.99341 14.774 4.16863 17.0273 6.85139 17.0273Z" fill="url(#paint1_linear_140_1173)"/>
<path fill-rule="evenodd" clip-rule="evenodd" d="M9.09358 10.3288C8.77009 10.0164 7.19724 8.7392 5.69132 8.69458C3.00297 8.62765 2.21655 10.5798 2.14404 10.8308C2.66275 8.64438 4.5814 7.01018 6.85701 6.99902C8.71431 6.99902 10.5939 8.82286 11.9827 10.4682L11.9883 10.4626C11.9883 10.4626 12.613 11.1821 13.299 11.9574C13.299 11.9574 14.0799 12.8777 14.9053 13.6864C15.2288 13.9988 16.7961 15.2593 18.302 15.3039C21.0629 15.382 21.827 13.3183 21.866 13.1621C21.3585 15.3652 19.4342 17.005 17.1475 17.0162C15.2902 17.0162 13.4106 15.1923 12.0162 13.547C12.0162 13.5526 12.0106 13.5526 12.0106 13.5581C12.0106 13.5581 11.3859 12.8386 10.6999 12.0634C10.7055 12.0634 9.92463 11.1375 9.09358 10.3288ZM2.14404 10.8531C2.14404 10.8475 2.14404 10.8419 2.14962 10.8363C2.14404 10.8419 2.14404 10.8475 2.14404 10.8531Z" fill="#29ABE2"/>
</g>
<defs>
<linearGradient id="paint0_linear_140_1173" x1="14.531" y1="7.79361" x2="21.407" y2="14.7262" gradientUnits="userSpaceOnUse">
<stop offset="0.21" stop-color="#F15A24"/>
<stop offset="0.6841" stop-color="#FBB03B"/>
</linearGradient>
<linearGradient id="paint1_linear_140_1173" x1="9.46423" y1="16.2339" x2="2.58826" y2="9.30132" gradientUnits="userSpaceOnUse">
<stop offset="0.21" stop-color="#ED1E79"/>
<stop offset="0.8929" stop-color="#522785"/>
</linearGradient>
<clipPath id="clip0_140_1173">
<rect width="24" height="24" rx="12" fill="white"/>
</clipPath>
</defs>
</svg>
